# xmcd CD database file
#
# Track frame offsets:
#	150
#	19225
#	36250
#	53775
#	74927
#	89202
#	113670
#	133225
#	150925
#	168177
#	207350
#
# Disc length: 2865 seconds
#
# Revision: 7
# Processed by: cddbd v1.5.1PL0 Copyright (c) Steve Scherf et al.
# Submitted via: CDex 1.51
#
DISCID=9e0b2f0b
DTITLE=佐野元春 - SOMEDAY
DYEAR=1982
DGENRE=Pop
TTITLE0=Sugartime
TTITLE1=Happy Man
TTITLE2=DOWN TOWN BOY
TTITLE3=二人のバースデイ
TTITLE4=麗しのドンナ・アンナ
TTITLE5=SOMEDAY
TTITLE6=I'm in blue
TTITLE7=真夜中に清めて
TTITLE8=Vanity Factory
TTITLE9=Rock and Roll Night
TTITLE10=サンチャイルドは僕の友達
EXTD=YEAR: 1982
EXTT0=
EXTT1=
EXTT2=
EXTT3=
EXTT4=
EXTT5=
EXTT6=
EXTT7=
EXTT8=
EXTT9=
EXTT10=
PLAYORDER=
